<?xml version="1.0"?>
<svg version="1.1" xmlns="http://www.w3.org/2000/svg" width="128px" height="55px" style=""><path fill="#" d="M14,36.964c0,3.892-3.164,5.992-6.804,5.992c-1.68,0-3.668-0.308-5.348-0.896c-0.364-0.14-0.476-0.308-0.476-0.532c0-0.112,0-0.224,0.056-0.364l0.588-1.82c0.084-0.28,0.224-0.448,0.504-0.448c0.112,0,0.252,0.028,0.42,0.084c1.316,0.476,2.772,0.84,4.172,0.84c1.512,0,3.22-0.728,3.22-2.492c0-1.288-0.952-1.988-2.044-2.52l-3.64-1.82c-1.988-0.98-3.304-2.632-3.304-4.816c0-3.416,3.36-5.292,6.468-5.292c1.848,0,3.388,0.28,5.012,0.98c0.364,0.168,0.56,0.336,0.56,0.56c0,0.112-0.028,0.224-0.084,0.364l-0.672,1.708c-0.112,0.308-0.28,0.42-0.476,0.42c-0.14,0-0.28-0.056-0.448-0.112c-1.148-0.476-2.576-0.868-3.696-0.868c-1.316,0-2.828,0.56-2.828,2.128c0,1.148,1.064,1.82,1.988,2.268l3.108,1.512c2.212,1.064,3.724,2.548,3.724,5.124z M30.786,42.06c0,0.42-0.084,0.56-0.448,0.56l-2.464,0c-0.392,0-0.476-0.112-0.476-0.56l0-7.784c0-1.512-0.42-2.632-2.1-2.632c-1.092,0-2.492,0.588-3.36,1.344l0,9.072c0,0.42-0.112,0.56-0.532,0.56l-2.408,0c-0.336,0-0.448-0.14-0.448-0.504l0-18.508c0-0.504,0.224-0.644,0.616-0.7l1.932-0.252c0.112-0.028,0.252-0.028,0.364-0.028c0.308,0,0.476,0.14,0.476,0.532l0,7.028c1.176-0.98,2.94-1.512,4.424-1.512c3.136,0,4.424,1.988,4.424,5.012l0,8.372z M49.168,42.088c0,0.336-0.224,0.532-0.56,0.532l-1.344,0c-1.456,0-2.1-0.7-2.296-1.652l-0.056,0c-0.7,1.036-2.52,1.988-4.06,1.988c-3.948,0-5.74-3.248-5.74-6.888c0-4.844,2.912-7.392,6.048-7.392c1.484,0,2.884,0.672,3.584,1.624l0.056-0.756c0.028-0.308,0.252-0.504,0.588-0.504l1.96,0c0.364,0,0.588,0.196,0.588,0.616l0,9.716c0,0.392,0.056,0.672,0.168,0.812c0.084,0.084,0.196,0.112,0.336,0.112l0.224,0c0.336,0,0.504,0.112,0.504,0.476l0,1.316z M44.548,38.28l0-5.404c-0.56-0.812-1.708-1.428-2.772-1.428c-1.708,0-3.164,1.456-3.164,4.396c0,2.352,0.896,4.34,2.968,4.34c1.372,0,2.548-1.036,2.968-1.904z M65.534,29.432c0,0.084-0.028,0.168-0.056,0.28l-5.516,14.504c-1.26,3.332-2.828,4.508-6.188,4.508c-0.532,0-1.008-0.028-1.484-0.14c-0.308-0.056-0.42-0.224-0.42-0.476c0-0.084,0.028-0.14,0.028-0.252l0.196-1.456c0.056-0.364,0.196-0.504,0.504-0.504l0.168,0c0.336,0.028,0.672,0.084,0.952,0.084c1.736,0,2.464-0.616,3.024-1.932l0.532-1.26l-5.096-13.132c-0.028-0.084-0.056-0.14-0.056-0.224c0-0.224,0.168-0.392,0.42-0.392l2.688,0c0.392,0,0.588,0.196,0.7,0.476l3.108,9.268l2.94-9.1c0.14-0.448,0.364-0.644,0.84-0.644l2.268,0c0.28,0,0.448,0.168,0.448,0.392z M79.548,41.668c0,0.224-0.14,0.336-0.392,0.448c-1.344,0.616-2.576,0.84-4.06,0.84c-4.312,0-6.692-2.688-6.692-7c0-4.34,2.604-7.28,6.944-7.28c1.26,0,2.576,0.252,3.752,0.784c0.224,0.112,0.336,0.168,0.336,0.392c0,0.084-0.028,0.252-0.056,0.336l-0.364,1.484c-0.056,0.252-0.168,0.392-0.336,0.392c-0.084,0-0.196-0.056-0.308-0.112c-0.812-0.336-1.708-0.616-2.688-0.616c-2.408,0-3.78,1.708-3.78,4.452c0,2.688,1.232,4.536,3.64,4.536c1.204,0,1.96-0.224,2.94-0.616c0.084-0.028,0.196-0.084,0.28-0.084c0.168,0,0.28,0.14,0.336,0.336l0.364,1.232c0.056,0.196,0.084,0.364,0.084,0.476z M96.194,35.816c0,4.032-2.464,7.14-6.832,7.14c-4.564,0-6.664-3.08-6.664-7.168c0-4.032,2.464-7.112,6.832-7.112c4.564,0,6.664,3.024,6.664,7.14z M92.694,35.816c0-2.296-0.728-4.48-3.192-4.48c-2.492,0-3.304,2.156-3.304,4.396c0,2.296,0.7,4.564,3.192,4.564c2.464,0,3.304-2.184,3.304-4.48z M108.248,29.152c0,0.084,0,0.168-0.028,0.252l-0.308,1.988c-0.028,0.252-0.168,0.364-0.392,0.364l-0.112,0c-0.224-0.056-0.504-0.084-0.756-0.084c-0.952,0-1.988,0.504-2.688,1.344l0,8.904c0,0.448-0.196,0.7-0.672,0.7l-2.044,0c-0.448,0-0.672-0.224-0.672-0.7l0-8.736l0-3.444c0-0.56,0.28-0.7,0.7-0.7l1.792,0c0.448,0,0.7,0.14,0.7,0.532l0.028,0.896c0.868-1.092,1.82-1.792,3.388-1.792c0.224,0,0.532,0.056,0.784,0.112c0.196,0.056,0.28,0.14,0.28,0.364z M123.97,41.92c0,0.476-0.28,0.7-0.616,0.7l-1.82,0c-0.448,0-0.644-0.224-0.672-0.56l-0.056-0.756c-0.784,0.896-2.352,1.652-3.808,1.652c-4.06,0-5.908-3.22-5.908-6.972c0-3.92,2.184-7.336,6.132-7.336c1.26,0,2.576,0.504,3.36,1.316l0-6.3c0-0.504,0.14-0.7,0.588-0.756l2.072-0.28c0.028,0,0.252-0.028,0.28-0.028c0.336,0,0.448,0.14,0.448,0.56l0,18.76z M120.582,38.812l0-6.076c-0.56-0.756-1.624-1.372-2.688-1.372c-2.268,0-3.276,2.128-3.276,4.424s0.84,4.424,3.108,4.424c1.036,0,2.296-0.7,2.856-1.4z"/><path fill="#" d=""/></svg>
